Poster:
 
http://www.hotimg.com/direct/Y4N4QPS.jpg

Screenshots:
 
http://www.hotimg.com/direct/Uj6xmpR.png
 
http://www.hotimg.com/direct/RyvExZa.png
 
http://www.hotimg.com/direct/u7v9fU9.png
 
http://www.hotimg.com/direct/5XTSbA6.png

Information:

Puss In Boots (2011) DVDSCR XViD-FTW
 
http://www.imdb.com/title/tt0448694/

Title: Puss In Boots 2011
Genre: Animation, Adventure, Comedy, Family, Fantasy
Rating: 7.0/10 (12,645 Votes) 75%
Runtime: 90 Mins
Release Date: 3 December 2011
Year: 2011


Synopsis :

Years before meeting Shrek and Donkey, the adorable but tricky Puss in Boots must clear his name from all charges making him a wanted fugitive. While trying to steal magic beans from the infamous criminals Jack and Jill, the hero crosses paths with his female match, Kitty Softpaws, who leads Puss to his old friend, but now enemy, Humpty Dumpty. Memories of friendship and betrayal enlarges Puss' doubt, but he eventually agrees to help the egg get the magic beans. Together, the three plan to steal the beans, get to the Giant's castle, nab the golden goose, and clear Puss' name.

Format : AVI
Format/Info : Audio Video Interleave
File size : 694 MiB
Duration : 1h 30mn
Overall bit rate : 1 074 Kbps

Video
ID : 0
Format : MPEG-4 Visual
Format profile : Advanced Simple@L5
Format settings, BVOP : 1
Format settings, QPel : No
Format settings, GMC : No warppoints
Format settings, Matrix : Default (H.263)
Codec ID : XVID
Codec ID/Hint : XviD
Duration : 1h 30mn
Bit rate : 939 Kbps
Width : 720 pixels
Height : 480 pixels
Display aspect ratio : 3:2
Frame rate : 29.970 fps
Standard : NTSC
Color space : YUV
Chroma subsampling : 4:2:0
Bit depth : 8 bits
Scan type : Progressive
Compression mode : Lossy
Bits/(Pixel*Frame) : 0.091
Stream size : 606 MiB (87%)
Writing library : XviD 1.2.1 (UTC 2008-12-04)

Audio
ID : 1
Format : MPEG Audio
Format version : Version 1
Format profile : Layer 3
Mode : Joint stereo
Mode extension : MS Stereo
Codec ID : 55
Codec ID/Hint : MP3
Duration : 1h 30mn
Bit rate mode : Constant
Bit rate : 128 Kbps
Channel(s) : 2 channels
Sampling rate : 44.1 KHz
Compression mode : Lossy
Stream size : 82.7 MiB (12%)
Alignment : Aligned on interleaves
Interleave, duration : 133 ms (4.00 video frames)
Interleave, preload duration : 208 ms
Writing library : LAME3.98r
Encoding settings : -m j -V 4 -q 2 -lowpass 17 -b 128

